:FULLY-SPECIFIED
:FORCE-ALL-JOINTS-BE-3DOF
:DEGREES
170
root 5.34767 15.5062 -25.8563 5.5569 -2.34283 1.92821
lfemur -1.02743 -3.88759 -0.869604
ltibia 12.3002 0 0
lfoot -31.4424 -9.39344 0
ltoes 36.3361 0 0
rfemur -29.9047 -16.9071 -7.68698
rtibia 57.6442 0 0
rfoot -16.6279 20.0135 0
rtoes 41.5751 0 0
lowerback -3.40236 -0.504576 0.873446
upperback -1.14856 -0.53016 -5.32861
thorax 0.473269 -0.268376 -6.20966
lowerneck -11.9277 -0.380839 6.19351
upperneck 2.77557 -1.52749 1.67078
head 2.89442 -0.580919 -0.619021
lclavicle -9.52411e-15 -1.77592e-14 0
lhumerus -56.7386 -35.6454 109.985
lradius 52.5496 0 0
lwrist 25.2428 0 0
lhand 32.8778 26.3956 0
lfingers 7.12502 0 0
lthumb 55.9322 41.1572 0
rclavicle -9.52411e-15 -1.77592e-14 0
rhumerus -11.4195 -7.55494 -21.4882
rradius 53.8161 0 0
rwrist -22.2011 0 0
rhand -12.83 -37.0896 0
rfingers 7.12502 0 0
rthumb 13.2568 -296.083 0
171
root 5.31746 15.4884 -25.8436 5.59595 -2.49309 2.04276
lfemur -0.615041 -3.83155 -0.761796
ltibia 11.917 0 0
lfoot -31.6646 -9.50401 0
ltoes 36.7307 0 0
rfemur -29.8795 -16.9957 -7.86121
rtibia 57.3223 0 0
rfoot -17.1542 19.9308 0
rtoes 42.4123 0 0
lowerback -3.45314 -0.547315 0.847194
upperback -1.13921 -0.58627 -5.43555
thorax 0.507419 -0.296188 -6.30676
lowerneck -11.9426 -0.316403 6.24046
upperneck 2.82557 -1.4518 1.68659
head 2.91493 -0.541006 -0.619012
lclavicle -9.70219e-15 -1.81144e-14 0
lhumerus -56.8594 -36.0927 110.245
lradius 52.5913 0 0
lwrist 25.352 0 0
lhand 33.2152 26.6574 0
lfingers 7.12502 0 0
lthumb 56.2391 41.2446 0
rclavicle -9.70219e-15 -1.81144e-14 0
rhumerus -10.9868 -7.59601 -20.8039
rradius 53.8728 0 0
rwrist -22.4397 0 0
rhand -12.7593 -37.4508 0
rfingers 7.12502 0 0
rthumb 13.325 -300.597 0
172
root 5.28797 15.4707 -25.8308 5.63542 -2.63541 2.15759
lfemur -0.208903 -3.77395 -0.657057
ltibia 11.5423 0 0
lfoot -31.8829 -9.61505 0
ltoes 37.123 0 0
rfemur -29.8565 -17.0832 -8.02913
rtibia 57.0037 0 0
rfoot -17.6714 19.8477 0
rtoes 43.2383 0 0
lowerback -3.50212 -0.589822 0.820248
upperback -1.12937 -0.642141 -5.54108
thorax 0.541171 -0.323885 -6.40195
lowerneck -11.9566 -0.253708 6.28597
upperneck 2.87458 -1.37821 1.70302
head 2.93507 -0.50217 -0.618629
lclavicle -9.86971e-15 -1.84697e-14 0
lhumerus -56.9772 -36.5351 110.501
lradius 52.633 0 0
lwrist 25.4595 0 0
lhand 33.5467 26.9148 0
lfingers 7.12502 0 0
lthumb 56.5405 41.3307 0
rclavicle -9.86971e-15 -1.84697e-14 0
rhumerus -10.5639 -7.62942 -20.1349
rradius 53.9314 0 0
rwrist -22.6724 0 0
rhand -12.6887 -37.8051 0
rfingers 7.12502 0 0
rthumb 13.3931 -305.103 0
173
root 5.25922 15.4533 -25.818 5.67529 -2.76949 2.27268
lfemur 0.190687 -3.7148 -0.555478
ltibia 11.1764 0 0
lfoot -32.097 -9.72656 0
ltoes 37.5129 0 0
rfemur -29.8356 -17.1696 -8.19052
rtibia 56.6885 0 0
rfoot -18.179 19.7642 0
rtoes 44.0525 0 0
lowerback -3.54925 -0.632085 0.792611
upperback -1.11905 -0.697757 -5.64513
thorax 0.574507 -0.351461 -6.49516
lowerneck -11.9698 -0.192827 6.32996
upperneck 2.92255 -1.30681 1.72009
head 2.95481 -0.464458 -0.617858
lclavicle -1.00263e-14 -1.88249e-14 0
lhumerus -57.0919 -36.9725 110.752
lradius 52.6749 0 0
lwrist 25.5653 0 0
lhand 33.8718 27.1674 0
lfingers 7.12502 0 0
lthumb 56.8362 41.4154 0
rclavicle -1.00263e-14 -1.88249e-14 0
rhumerus -10.1513 -7.65493 -19.4818
rradius 53.9918 0 0
rwrist -22.8988 0 0
rhand -12.6182 -38.152 0
rfingers 7.12502 0 0
rthumb 13.4611 -309.599 0
174
root 5.23125 15.436 -25.8052 5.71556 -2.89505 2.38802
lfemur 0.583432 -3.65406 -0.457148
ltibia 10.8197 0 0
lfoot -32.3067 -9.83856 0
ltoes 37.9001 0 0
rfemur -29.8171 -17.2547 -8.3452
rtibia 56.377 0 0
rfoot -18.6766 19.6803 0
rtoes 44.8542 0 0
lowerback -3.59445 -0.674089 0.764282
upperback -1.10821 -0.753104 -5.74766
thorax 0.607408 -0.378908 -6.58632
lowerneck -11.982 -0.13383 6.3724
upperneck 2.96946 -1.23768 1.73783
head 2.97415 -0.427913 -0.616689
lclavicle -1.01715e-14 -1.91799e-14 0
lhumerus -57.2035 -37.4045 110.998
lradius 52.7168 0 0
lwrist 25.6692 0 0
lhand 34.1904 27.4152 0
lfingers 7.12502 0 0
lthumb 57.126 41.4986 0
rclavicle -1.01715e-14 -1.91799e-14 0
rhumerus -9.74922 -7.6723 -18.8452
rradius 54.0542 0 0
rwrist -23.1189 0 0
rhand -12.5478 -38.4914 0
rfingers 7.12502 0 0
rthumb 13.5289 -314.083 0
175
root 5.20409 15.419 -25.7924 5.7562 -3.01178 2.50358
lfemur 0.969038 -3.59173 -0.362161
ltibia 10.4725 0 0
lfoot -32.5118 -9.95103 0
ltoes 38.2844 0 0
rfemur -29.801 -17.3387 -8.49296
rtibia 56.0695 0 0
rfoot -19.1637 19.5963 0
rtoes 45.643 0 0
lowerback -3.63765 -0.715821 0.735262
upperback -1.09686 -0.808166 -5.84859
thorax 0.639856 -0.406218 -6.67537
lowerneck -11.9934 -0.0767887 6.41323
upperneck 3.01525 -1.17091 1.75624
head 2.99306 -0.392579 -0.61511
lclavicle -1.03049e-14 -1.95344e-14 0
lhumerus -57.3118 -37.831 111.24
lradius 52.7588 0 0
lwrist 25.7712 0 0
lhand 34.5023 27.6578 0
lfingers 7.12502 0 0
lthumb 57.4096 41.5802 0
rclavicle -1.03049e-14 -1.95344e-14 0
rhumerus -9.35812 -7.6813 -18.2256
rradius 54.1186 0 0
rwrist -23.3325 0 0
rhand -12.4775 -38.8228 0
rfingers 7.12502 0 0
rthumb 13.5966 -318.555 0
176
root 5.17777 15.4023 -25.7795 5.79722 -3.1194 2.61933
lfemur 1.34721 -3.52779 -0.270605
ltibia 10.1353 0 0
lfoot -32.7121 -10.064 0
ltoes 38.6656 0 0
rfemur -29.7874 -17.4215 -8.63362
rtibia 55.7661 0 0
rfoot -19.6398 19.5121 0
rtoes 46.4182 0 0
lowerback -3.67878 -0.757268 0.705553
upperback -1.08496 -0.862927 -5.94786
thorax 0.671834 -0.433386 -6.76224
lowerneck -12.0038 -0.0217747 6.45239
upperneck 3.0599 -1.10658 1.77535
head 3.01154 -0.358502 -0.613107
lclavicle -1.04262e-14 -1.98884e-14 0
lhumerus -57.4166 -38.2516 111.477
lradius 52.801 0 0
lwrist 25.8714 0 0
lhand 34.8074 27.8952 0
lfingers 7.12502 0 0
lthumb 57.687 41.6602 0
rclavicle -1.04262e-14 -1.98884e-14 0
rhumerus -8.97836 -7.68167 -17.6236
rradius 54.1851 0 0
rwrist -23.5393 0 0
rhand -12.4074 -39.146 0
rfingers 7.12502 0 0
rthumb 13.6643 -323.012 0
